<svg xmlns="http://www.w3.org/2000/svg" xmlns:xlink="http://www.w3.org/1999/xlink" width="23" height="21" viewBox="0 0 23 21"><defs><path id="sei0a" d="M157 737l1 2h16c.69 0 1.48.28 1.48.97 0 .23 0 .34-.23.57L171.1 748c-.34.69-1.2 1-2.11 1h-7l-1.36 2.1v.11c0 .12.25-.21.36-.21h12v2h-13c-1.26 0-1.89-.3-1.89-1.56 0-.34.12-.8.23-1.14l1.61-2.76L156 739h-3v-2zm4 17a2 2 0 1 1 0 4 2 2 0 0 1 0-4zm9 0a2 2 0 1 1 0 4 2 2 0 0 1 0-4z"/><clipPath id="sei0b"><use fill="#fff" xlink:href="#sei0a"/></clipPath></defs><g><g transform="translate(-153 -737)"><use fill="#fff" fill-opacity="0" stroke="#000" stroke-miterlimit="50" stroke-width="4" clip-path="url(&quot;#sei0b&quot;)" xlink:href="#sei0a"/></g></g></svg>