<svg xmlns="http://www.w3.org/2000/svg" xmlns:xlink="http://www.w3.org/1999/xlink" width="15" height="15" viewBox="0 0 15 15"><defs><path id="fxtya" d="M1562 528v6c-.03.93-.26 1-1 1h-1c-.81.03-.97-.17-1-1v-6h-2c-.06-.11-.1 0-.07.03 0 .04.12.08.07-.03-.06 0-.07.01-.07.03.01.01.03 0 .07-.03l3.14-3.92c.1-.1.22-.16.36-.16a.5.5 0 0 1 .36.16L1564 528c-.05.11.06.07.07.03.02-.03-.02-.14-.07-.03zm2.07.03c0-.02-.02-.03-.07-.03.04.04.06.04.07.03zM1566 525v-3h-11v3h-2v-4c0-.5.47-1 1-1h13c.53 0 1 .5 1 1v4z"/></defs><g><g transform="translate(-1553 -520)"><use xlink:href="#fxtya"/></g></g></svg>