<svg xmlns="http://www.w3.org/2000/svg" xmlns:xlink="http://www.w3.org/1999/xlink" width="15" height="15" viewBox="0 0 15 15"><defs><path id="ydmaa" d="M663 388c.05.11.1 0 .07-.03 0-.04-.12-.08-.07.03l-3.14 3.92a.5.5 0 0 1-.36.16.49.49 0 0 1-.36-.16L656 388c-.04-.04-.06-.04-.07-.03 0 .02.01.03.07.03.05-.11-.06-.07-.07-.03-.02.03.01.14.07.03h2v-6c.03-.83.19-1.03 1-1h1c.74 0 .97.07 1 1v6zm0 0c.05 0 .07-.01.07-.03-.01-.01-.03 0-.07.03zm4 3v4c0 .5-.47 1-1 1h-13c-.53 0-1-.5-1-1v-4h2v3h11v-3z"/></defs><g><g transform="translate(-652 -381)"><use xlink:href="#ydmaa"/></g></g></svg>