<svg xmlns="http://www.w3.org/2000/svg" xmlns:xlink="http://www.w3.org/1999/xlink" width="18" height="23" viewBox="0 0 18 23"><defs><path id="rz4za" d="M167.32 806.78a19.28 19.28 0 0 1-2.34 1.92 1.77 1.77 0 0 1-1.97 0c-.33-.22-8-5.4-8-13.59a9.07 9.07 0 0 1 8.99-9.12c4.95 0 8.98 4.1 8.98 9.12 0 5.22-3.08 9.23-5.66 11.67zm-1.95-11.14c0-.81-.65-1.47-1.44-1.47-.8 0-1.45.66-1.45 1.47 0 .8.65 1.46 1.45 1.46.8 0 1.44-.65 1.44-1.46z"/><clipPath id="rz4zb"><use fill="#fff" xlink:href="#rz4za"/></clipPath></defs><g><g transform="translate(-155 -786)"><use fill="#fff" fill-opacity="0" stroke="#000" stroke-miterlimit="50" stroke-width="4" clip-path="url(&quot;#rz4zb&quot;)" xlink:href="#rz4za"/></g></g></svg>