<svg xmlns="http://www.w3.org/2000/svg" xmlns:xlink="http://www.w3.org/1999/xlink" width="20" height="20" viewBox="0 0 20 20"><defs><path id="hm0na" d="M453.92 901.9c-.03-.29-.36-.5-.64-.5-.92 0-1.73-.54-2.07-1.37a2.22 2.22 0 0 1 .56-2.47c.21-.2.24-.53.06-.75-.47-.6-1-1.14-1.59-1.6a.56.56 0 0 0-.76.06c-.6.66-1.66.9-2.49.56a2.22 2.22 0 0 1-1.35-2.17.55.55 0 0 0-.49-.58 9.99 9.99 0 0 0-2.25-.01.56.56 0 0 0-.5.57c.04.93-.51 1.78-1.36 2.13-.82.34-1.88.1-2.48-.56a.56.56 0 0 0-.75-.06c-.6.47-1.14 1-1.62 1.6a.56.56 0 0 0 .06.75c.7.63.92 1.64.56 2.5a2.31 2.31 0 0 1-2.17 1.35.54.54 0 0 0-.58.49 10 10 0 0 0 0 2.27c.03.28.36.5.65.5a2.2 2.2 0 0 1 2.06 1.36c.35.85.12 1.84-.56 2.47a.55.55 0 0 0-.06.75c.46.6 1 1.13 1.58 1.6.23.19.56.16.76-.06a2.3 2.3 0 0 1 2.5-.56c.85.36 1.4 1.23 1.34 2.17-.01.3.2.55.5.58a9.93 9.93 0 0 0 2.24.01c.3-.03.5-.28.5-.57a2.22 2.22 0 0 1 1.36-2.13 2.3 2.3 0 0 1 2.48.56c.2.22.52.24.75.06.6-.47 1.15-1 1.62-1.6a.55.55 0 0 0-.06-.75 2.21 2.21 0 0 1 1.49-3.85h.12c.29.03.55-.2.58-.49a10 10 0 0 0 0-2.27z"/><path id="hm0nb" d="M444 899.66a3.34 3.34 0 1 1 0 6.68 3.34 3.34 0 0 1 0-6.68z"/><clipPath id="hm0nc"><use fill="#fff" xlink:href="#hm0na"/></clipPath><clipPath id="hm0nd"><use fill="#fff" xlink:href="#hm0nb"/></clipPath></defs><g><g transform="translate(-434 -893)"><use fill="#fff" fill-opacity="0" stroke="#000" stroke-miterlimit="50" stroke-width="4" clip-path="url(&quot;#hm0nc&quot;)" xlink:href="#hm0na"/></g><g transform="translate(-434 -893)"><use fill="#fff" fill-opacity="0" stroke="#000" stroke-miterlimit="50" stroke-width="4" clip-path="url(&quot;#hm0nd&quot;)" xlink:href="#hm0nb"/></g></g></svg>