<svg xmlns="http://www.w3.org/2000/svg" xmlns:xlink="http://www.w3.org/1999/xlink" width="18" height="18" viewBox="0 0 18 18"><defs><path id="6khwa" d="M964 402v15c0 .86-1.14 1-2 1h-15c-.86 0-1-.14-1-1v-15c0-.86.14-1 1-1h3v-1h2v1h6v-1h2v1h3c.86 0 1 .14 1 1zm-16 1v13h14v-13h-2v1h-2v-1h-6v1h-2v-1zm14 13c-.22-.65-.02-.49 0-.12zm-14 0c-.22 0 0 .21 0 0zm0-13c0-.22-.22 0 0 0zm14 0c.21 0 0-.22 0 0zm-12 3h2v2h-2zm0 3h2v2h-2zm0 3h2v2h-2zm4 0h2v2h-2zm0-3h2v2h-2zm0-3h2v2h-2zm4 6h2v2h-2zm0-3h2v2h-2zm0-3h2v2h-2z"/></defs><g><g transform="translate(-946 -400)"><use fill="#afb7bf" xlink:href="#6khwa"/></g></g></svg>